<?xml version="1.0" encoding="utf-8"?>
<!DOCTYPE svg PUBLIC "-//W3C//DTD SVG 1.1//EN" "http://www.w3.org/Graphics/SVG/1.1/DTD/svg11.dtd">
<svg version="1.1" id="Layer_1" xmlns="http://www.w3.org/2000/svg" xmlns:xlink="http://www.w3.org/1999/xlink" x="0px" y="0px"
     width="500px" height="500px" viewBox="0 0 500 500" enable-background="new 0 0 500 500" xml:space="preserve">
        <defs>
            <mask id="maskSquare">
                <rect x="0" y="0" width="500" height="500" fill="white"/>
                <rect x="100" y="200" width="500" height="100" fill="black" transform="rotate(-45 250 250)"/>
                <rect x="70" y="70" rx="80" ry="80" width="360" height="360" fill="black"/>
            </mask>
            <mask id="maskPenBody">
                <rect x="-100" y="-100" width="500" height="500" fill="white"/>
                <polygon points="110 0 110 -5 190 -5 190 0" fill="black"/>
                <polygon points="110 -35 110 -30 190 -30 190 -35" fill="black"/>
                <polygon points="134 0 134 250 136 250 136 0" fill="black"/>
                <polygon points="164 0 164 250 166 250 166 0" fill="black"/>
            </mask>
        </defs>
        <g id="all" fill="white" stroke="white" stroke-width="10">
            <g id="square">
                <rect x="50" y="50" rx="100" ry="100" width="400" height="400" stroke-width="30" mask="url(#maskSquare)"/>
            </g>
            <g id="pen" transform="rotate(45 150 350)" mask="url(#maskPenBody)">
                <g id="penPoint">
                    <polygon points="150 350 120 300 120 290 135 300 150 290 165 300 180 290 180 300"/>
                </g>
                <g id="penBody">
                    <polygon points="120 -90 120 260 135 270 150 260 165 270 180 260 180 -90"/>
                </g>
            </g>

        </g>
</svg>